<?xml version="1.0" encoding="UTF-8" standalone="no"?>
<svg
   width="620"
   height="680"
   version="1.1"
   viewBox="0 0 620 680"
   xml:space="preserve"
   id="svg4"
   xmlns="http://www.w3.org/2000/svg"
   xmlns:svg="http://www.w3.org/2000/svg"
   xmlns:rdf="http://www.w3.org/1999/02/22-rdf-syntax-ns#"
   xmlns:cc="http://creativecommons.org/ns#"
   xmlns:dc="http://purl.org/dc/elements/1.1/"><title
     id="title4">(Holloway) Chew, Kean Ho's Proprietary License QR Notice</title><defs
     id="defs4" /><metadata
     id="metadata4"><rdf:RDF><cc:Work
         rdf:about=""><dc:title>(Holloway) Chew, Kean Ho's Proprietary License QR Notice</dc:title><dc:date>October 21, 2024</dc:date><dc:creator><cc:Agent><dc:title>(Holloway) Chew, Kean Ho</dc:title></cc:Agent></dc:creator><dc:rights><cc:Agent><dc:title>All Rights Reserved</dc:title></cc:Agent></dc:rights><dc:publisher><cc:Agent><dc:title>(Holloway) Chew, Kean Ho</dc:title></cc:Agent></dc:publisher><dc:identifier>chewkeanho-license-proprietary</dc:identifier><dc:relation>license notice</dc:relation><dc:language>english</dc:language><dc:source>https://doi.org/10.5281/zenodo.13767361</dc:source><dc:coverage>license, proprietary</dc:coverage><dc:subject><rdf:Bag><rdf:li>license</rdf:li><rdf:li>proprietary</rdf:li></rdf:Bag></dc:subject><cc:license
           rdf:resource="http://creativecommons.org/licenses/by-nd/4.0/" /></cc:Work><cc:License
         rdf:about="http://creativecommons.org/licenses/by-nd/4.0/"><cc:permits
           rdf:resource="http://creativecommons.org/ns#Reproduction" /><cc:permits
           rdf:resource="http://creativecommons.org/ns#Distribution" /><cc:requires
           rdf:resource="http://creativecommons.org/ns#Notice" /><cc:requires
           rdf:resource="http://creativecommons.org/ns#Attribution" /></cc:License></rdf:RDF></metadata><g
     id="foreground"><path
       style=""
       d="M -2.4999999e-7,561.35135 V 502.70271 H 58.648643 117.2973 V 561.35135 620 H 58.648643 -2.4999999e-7 Z M 100.54054,561.35135 V 519.45946 H 58.648643 16.756759 v 41.89189 41.8919 h 41.891884 41.891897 z m -67.027035,0 v -25.13513 h 25.135138 25.135138 v 25.13513 25.13514 H 58.648643 33.513505 Z m 117.297305,50.27026 v -8.37836 h 8.37838 8.37838 v -8.37839 -8.37837 h 8.37838 8.37838 v 8.37837 8.37839 h 8.37838 8.37837 v -8.37839 -8.37837 h 8.37838 8.37837 v -8.37839 -8.37837 h -8.37837 -8.37838 v -8.37838 -8.37838 h 8.37838 8.37837 v -8.37838 -8.37837 h -16.75675 -16.75675 v -8.37839 -8.37837 h 16.75675 16.75675 v -8.37838 -8.37837 h -33.5135 -33.51352 v 16.75675 16.75676 h 8.37838 8.37838 v 16.75675 16.75676 h -8.37838 -8.37838 v -8.37838 -8.37838 h -8.37838 -8.37838 v -41.89189 -41.89189 h -8.37837 -8.37838 v 8.37838 8.37838 H 100.54054 83.783781 v -8.37838 -8.37838 H 58.648643 33.513505 v 8.37838 8.37838 H 16.756759 -2.4999999e-7 v -8.37838 -8.37838 H 16.756759 33.513505 v -16.75676 -16.75675 h 8.37838 8.378392 v -8.37838 -8.37837 h -8.378392 -8.37838 v -8.37839 -8.37839 h -8.378366 -8.37838 v 16.75678 16.75675 H 8.3783797 -2.4999999e-7 V 418.91893 402.16215 H 8.3783797 16.756759 v -8.37836 -8.37838 H 8.3783797 -2.4999999e-7 V 368.64866 351.89188 H 25.135139 50.270277 v 8.37839 8.37839 h 16.756745 16.756759 v -8.37839 -8.37839 h -8.378379 -8.37838 v -8.37837 -8.37836 h -33.513517 -33.51350525 v -8.37839 -8.37838 H 25.135139 50.270277 v -8.37837 -8.37839 h 16.756745 16.756759 v -8.37838 -8.37837 H 58.648643 33.513505 v 8.37837 8.37838 H 16.756759 -2.4999999e-7 v -8.37838 -8.37837 H 16.756759 33.513505 v -16.75675 -16.75678 h 8.37838 8.378392 v 8.37839 8.37839 H 67.027022 83.783781 V 251.35134 234.59459 H 58.648643 33.513505 v -8.37838 -8.37836 h -8.378366 -8.37838 v -8.37839 -8.37839 H 8.3783797 -2.4999999e-7 v -8.37837 -8.37838 H 25.135139 50.270277 v 8.37838 8.37837 h 8.378366 8.378379 v -16.75675 -16.75675 h 8.37838 8.378379 v -8.37837 -8.37839 h -8.378379 -8.37838 v -8.37838 -8.37838 h 33.513518 33.51351 V 108.91892 83.78378 h 8.37838 8.37838 v 16.75676 16.75677 h 8.37838 8.37838 v -8.37839 -8.37838 h 8.37838 8.37838 v 16.75677 16.75674 h -25.13514 -25.13514 v 8.37838 8.37838 H 117.2973 100.54054 v 8.37839 8.37837 h 16.75676 16.75675 v 8.37838 8.37837 h 16.75676 16.75676 v -16.75675 -16.75676 h 16.75676 16.75675 v -25.13513 -25.13514 h 8.37838 8.37837 v 16.75677 16.75674 h 8.37838 8.37839 v 8.37838 8.37838 h -8.37839 -8.37838 v 8.37839 8.37837 h 16.75677 16.75675 v 16.75675 16.75675 h -8.37838 -8.37837 v -8.37837 -8.37838 h -8.37839 -8.37838 v -8.37837 -8.37838 h -8.37837 -8.37838 v 25.13513 25.13515 h 25.13513 25.13514 v 25.13513 25.13514 h 8.37838 8.37838 v -8.37839 -8.37839 h 16.75676 16.75676 v -8.37836 -8.37839 h -16.75676 -16.75676 v -25.13513 -25.13514 h 8.37838 8.37838 v 16.75675 16.75678 h 8.37836 8.3784 v 8.37836 8.37838 h 16.75674 16.75676 v -25.13513 -25.13514 h -8.37838 -8.37838 v 8.37838 8.37837 h -8.37836 -8.37838 v -8.37837 -8.37838 h 8.37838 8.37836 v -8.37837 -8.37838 h -25.13514 -25.13512 v -8.37837 -8.37839 h -8.37838 -8.37838 v -16.75676 -16.75674 h -8.37838 -8.37837 v -8.37839 -8.37838 h 8.37837 8.37838 v -8.37837 -8.37839 h 8.37838 8.37838 V 75.40541 67.02702 H 251.35135 234.5946 v 8.37839 8.37837 h -8.37839 -8.37838 v -8.37837 -8.37839 h -8.37837 -8.37838 v 8.37839 8.37837 h -8.37837 -8.37838 v -8.37837 -8.37839 h -8.37838 -8.37838 v -8.37837 -8.37838 h -8.37838 -8.37838 V 41.8919 33.51351 h -8.37838 -8.37838 v -8.37837 -8.37839 h 8.37838 8.37838 v 8.37839 8.37837 h 8.37838 8.37838 v -8.37837 -8.37839 h 8.37838 8.37838 V 8.37838 0 h 25.13513 25.13514 v 16.75675 16.75676 h 16.75675 16.75676 v 16.75676 16.75675 h 8.37838 8.37838 V 41.8919 16.75675 h -8.37838 -8.37838 V 8.37838 0 h 8.37838 8.37838 v 8.37838 8.37837 h 8.37836 8.3784 V 8.37838 0 h 16.75674 16.75676 v 8.37838 8.37837 h -8.37838 -8.37838 v 16.75676 16.75676 h 8.37838 8.37838 V 41.8919 33.51351 h 16.75676 16.75676 v 8.37839 8.37837 h -16.75676 -16.75676 v 8.37838 8.37837 h 25.13514 25.13514 v -8.37837 -8.37838 h 8.37837 8.37838 v 8.37838 8.37837 h 8.37838 8.37838 v -8.37837 -8.37838 h 16.75675 16.75676 V 41.8919 33.51351 h 16.75675 16.75677 v 16.75676 16.75675 h -8.37839 -8.37838 v 8.37839 8.37837 h 8.37838 8.37838 v 16.75676 16.75677 h -8.37838 -8.37838 V 100.54054 83.78378 h -16.75675 -16.75676 v -8.37837 -8.37839 h -8.37838 -8.37837 v 25.13514 25.13515 h 8.37837 8.37838 v -8.37839 -8.37838 h 8.37838 8.37838 v 8.37838 8.37839 h -8.37838 -8.37838 v 16.75674 16.75676 h 8.37838 8.37838 v -8.37838 -8.37838 h 16.75675 16.75677 v 8.37838 8.37838 h 8.37837 8.37838 v -8.37838 -8.37838 h 16.75676 16.75676 v 8.37838 8.37838 h -8.37838 -8.37838 v 8.37839 8.37837 h 16.75676 16.75676 v -8.37837 -8.37839 h 8.37838 8.37836 v 8.37839 8.37837 h 8.37838 8.37838 v -16.75676 -16.75676 h 8.37837 8.37838 v 33.51352 33.5135 h -16.75675 -16.75676 v 8.37839 8.37839 h 8.37838 8.37838 v 8.37836 8.37838 h 8.37837 8.37838 v 8.37839 8.37836 h -8.37837 -8.37838 v 25.13515 25.13513 h -8.37838 -8.37838 v 8.37839 8.37837 H 594.86486 620 v 8.37838 8.37839 h -8.37838 -8.37838 v 8.37836 8.37837 H 611.62162 620 v 8.37839 8.37839 h -8.37838 -8.37838 v 8.37836 8.37839 H 611.62162 620 v 16.75674 16.75678 h -8.37838 -8.37838 v 16.75675 16.75675 H 611.62162 620 v 16.75676 16.75676 h -8.37838 -8.37838 v -8.37838 -8.37838 h -8.37838 -8.37838 v 8.37838 8.37838 h -8.37838 -8.37838 v 8.37837 8.37839 h 8.37838 8.37838 v 16.75675 16.75676 h 8.37838 8.37838 v -8.37839 -8.37837 h 8.37838 8.37837 v 8.37837 8.37839 h -8.37837 -8.37838 v 8.37837 8.37838 H 611.62162 620 v 8.37838 8.37838 h -8.37838 -8.37838 v 16.75676 16.75676 H 611.62162 620 V 611.62161 620 h -33.51352 -33.5135 v -8.37839 -8.37836 H 527.83784 502.7027 V 611.62161 620 h -8.37838 -8.37837 v -8.37839 -8.37836 h 8.37837 8.37838 V 578.1081 552.97297 h -8.37838 -8.37837 v 8.37838 8.37838 h -8.37839 -8.37838 v -41.8919 -41.89188 h -8.37837 -8.37838 v 33.51351 33.51351 h -8.37838 -8.37838 v 8.37838 8.37838 h -8.37838 -8.37837 v -8.37838 -8.37838 h -25.13514 -25.13513 v 8.37838 8.37838 h -8.37838 -8.37838 v -8.37838 -8.37838 h 8.37838 8.37838 v -8.37838 -8.37837 h -16.75676 -16.75676 v -8.37839 -8.37837 h -8.37838 -8.37838 v -8.37838 -8.37837 h -8.37836 -8.37838 v 8.37837 8.37838 h -16.75676 -16.75676 v 8.37837 8.37839 h 8.37838 8.37838 v 8.37837 8.37838 h -16.75676 -16.75676 v 8.37838 8.37838 h 25.13514 25.13514 v 8.37837 8.37839 h 16.75674 16.75676 v 8.37837 8.37839 h 8.37838 8.37838 V 611.62161 620 h -8.37838 -8.37838 v -8.37839 -8.37836 H 318.37837 301.62163 V 611.62161 620 h -8.3784 -8.37836 v -8.37839 -8.37836 h 8.37836 8.3784 v -8.37839 -8.37837 H 284.86487 268.10811 V 603.24325 620 h -58.64865 -58.64865 z m 418.91891,-16.75675 v -8.37837 h 8.37838 8.37838 v -8.37839 -8.37837 h -16.75676 -16.75674 v -8.37838 -8.37838 h -16.75676 -16.75676 v 8.37838 8.37838 h 8.37838 8.37836 v 8.37837 8.37839 h 8.37838 8.37838 v 8.37837 8.37839 h 8.37838 8.37838 z M 251.35135,578.1081 v -8.37837 h -8.37838 -8.37837 v 8.37837 8.37839 h 8.37837 8.37838 z m 0,-41.89188 v -16.75676 h 8.37838 8.37838 v -16.75675 -16.75676 h -8.37838 -8.37838 v -8.37838 -8.37838 H 234.5946 217.83783 v -16.75676 -16.75675 h 16.75677 16.75675 v 8.37837 8.37838 h 8.37838 8.37838 v -8.37838 -8.37837 h 16.75676 16.75676 v 8.37837 8.37838 h -8.3784 -8.37836 v 25.13514 25.13514 h 8.37836 8.3784 v -8.37839 -8.37837 h 16.75674 16.75676 v 8.37837 8.37839 h 8.37838 8.37838 v 8.37837 8.37838 h 8.37838 8.37838 v -8.37838 -8.37837 h 25.13513 25.13514 v 25.13512 25.13514 h 8.37837 8.37838 v -25.13514 -25.13512 h -8.37838 -8.37837 v -8.37839 -8.37837 h 16.75675 16.75676 v -8.37838 -8.37838 h 25.13513 25.13514 v -8.37839 -8.37837 h 8.37838 8.37838 v -8.37838 -8.37837 h -8.37838 -8.37838 v -16.75675 -16.75678 h 8.37838 8.37838 v -8.37836 -8.37838 h 8.37838 8.37836 v 8.37838 8.37836 h 8.37838 8.37838 v 16.75678 16.75675 h -8.37836 -8.37838 v 16.75675 16.75676 h 8.37838 8.37838 v -8.37839 -8.37837 h 8.37836 8.37838 v -8.37838 -8.37837 h 8.37838 8.37838 v -8.37838 -8.37837 h 8.37837 8.37838 v -8.37839 -8.37839 h -8.37837 -8.37838 v 8.37839 8.37839 h -8.37838 -8.37838 v -8.37839 -8.37839 h -8.37836 -8.37838 v -8.37836 -8.37838 h 8.37838 8.37836 v -8.37839 -8.37836 h 16.75676 16.75676 v -8.37839 -8.37839 h -16.75676 -16.75676 v -16.75673 -16.75677 h -16.75674 -16.75676 v -16.75676 -16.75675 h 8.37838 8.37838 v -8.37838 -8.37837 h 8.37836 8.37838 v -8.37839 -8.37839 h -8.37836 -8.37838 v 8.37839 8.37839 h -8.37838 -8.37838 v -25.13514 -25.13513 h 8.37838 8.37838 v 8.37836 8.37838 h 8.37836 8.37838 v -8.37838 -8.37836 h -8.37836 -8.37838 v -8.37839 -8.37839 h -8.37838 -8.37838 v -8.37837 -8.37838 h -8.37838 -8.37838 v -8.37837 -8.37838 h -8.37838 -8.37838 v 16.75675 16.75675 h 16.75676 16.75676 v 8.37839 8.37839 H 519.45946 502.7027 v 8.37836 8.37838 h -16.75675 -16.75677 v 8.37839 8.37836 h -25.13513 -25.13513 v -8.37836 -8.37839 h 8.37837 8.37838 v -8.37838 -8.37836 h 25.13514 25.13514 v -8.37839 -8.37839 h -25.13514 -25.13514 v -8.37837 -8.37838 h -8.37838 -8.37837 v -8.37837 -8.37838 h 8.37837 8.37838 v -8.37837 -8.37839 h -8.37838 -8.37837 v -16.75676 -16.75674 h -8.37838 -8.37838 v -8.37839 -8.37838 h -8.37838 -8.37837 v 16.75677 16.75674 h -8.37838 -8.37838 v 8.37838 8.37838 h -8.37838 -8.37838 v 8.37839 8.37837 h -8.37838 -8.37838 v 8.37838 8.37837 h 8.37838 8.37838 v 33.51353 33.51349 h 8.37838 8.37838 v 8.37839 8.37839 h -25.13514 -25.13514 v -8.37839 -8.37839 h -8.37836 -8.37838 v 8.37839 8.37839 h 8.37838 8.37836 v 8.37837 8.37838 h 16.75676 16.75676 v 8.37837 8.37838 h -8.37838 -8.37838 v 16.75676 16.75677 h -25.13512 -25.13514 v -16.75677 -16.75676 h 8.37836 8.3784 v 8.37839 8.37837 h 8.37838 8.37836 v -8.37837 -8.37839 h -8.37836 -8.37838 v -8.37838 -8.37837 h -8.3784 -8.37836 v -8.37838 -8.37837 h -8.37838 -8.37838 v 8.37837 8.37838 h -8.37838 -8.37838 v -8.37838 -8.37837 h -8.37838 -8.37837 v -16.75678 -16.75675 h -16.75677 -16.75675 v -8.37838 -8.37836 h -8.37837 -8.37838 v -8.37839 -8.37839 h -8.37838 -8.37838 v 8.37839 8.37839 h -8.37838 -8.37838 v -8.37839 -8.37839 h -8.37838 -8.37838 v -8.37837 -8.37838 H 108.91892 83.783781 v 8.37838 8.37837 h 25.135139 25.13513 v 8.37839 8.37839 h 8.37838 8.37838 v 8.37836 8.37838 H 134.05405 117.2973 v -8.37838 -8.37836 H 100.54054 83.783781 v 8.37836 8.37838 h 16.756759 16.75676 v 8.37839 8.37836 h -8.37838 -8.37838 v 8.37839 8.37839 h 16.75676 16.75675 v 16.75675 16.75675 h 8.37838 8.37838 v 16.75676 16.75677 h -8.37838 -8.37838 v -8.37839 -8.37838 H 117.2973 100.54054 v -8.37837 -8.37839 h 8.37838 8.37838 v -8.37838 -8.37837 h -8.37838 -8.37838 v 8.37837 8.37838 h -8.378379 -8.37838 v 8.37839 8.37837 h 8.37838 8.378379 v 8.37838 8.37839 h -8.378379 -8.37838 v 8.37836 8.37837 h 8.37838 8.378379 v 8.37839 8.37839 h 25.13514 25.13513 v 8.37836 8.37839 h 8.37838 8.37838 v 8.37838 8.37836 h 16.75676 16.75675 v 8.37839 8.37839 h -8.37837 -8.37838 v 8.37837 8.37838 h 8.37838 8.37837 v 16.75675 16.75676 h 8.37838 8.37837 v 16.75676 16.75676 h 16.75677 16.75675 v 8.37837 8.37838 H 234.5946 217.83783 v 8.37837 8.37839 h 8.37838 8.37839 v 8.37837 8.37838 h 8.37837 8.37838 z m 100.54054,-41.8919 v -8.37837 h 8.37838 8.37838 v 8.37837 8.37839 h -8.37838 -8.37838 z m 50.27027,-16.75675 v -8.37838 h -8.37838 -8.37837 v -8.37839 -8.37837 h -16.75676 -16.75676 v -8.37838 -8.37837 h -8.37838 -8.37838 v 16.75675 16.75676 h -16.75676 -16.75674 v -8.37839 -8.37837 h 8.37838 8.37836 v -8.37838 -8.37837 h -8.37836 -8.37838 v -8.37838 -8.37837 h -8.3784 -8.37836 v -8.37839 -8.37839 h -8.37838 -8.37838 v 8.37839 8.37839 h -8.37838 -8.37838 v -16.75678 -16.75674 h 8.37838 8.37838 V 368.64866 351.89188 H 251.35135 234.5946 v 8.37839 8.37839 h -8.37839 -8.37838 v 8.37836 8.37839 h 8.37838 8.37839 v 8.37838 8.37836 h -16.75677 -16.75675 v -16.75674 -16.75675 h 8.37838 8.37837 v -8.37839 -8.37839 h -25.13512 -25.13514 v 8.37839 8.37839 h 8.37838 8.37838 v 8.37836 8.37839 h -8.37838 -8.37838 v -8.37839 -8.37836 h -8.37838 -8.37838 v -16.75678 -16.75673 h 8.37838 8.37838 v -8.37839 -8.37838 h 16.75676 16.75675 v -8.37837 -8.37839 h -25.13513 -25.13514 v -25.13513 -25.13515 h 8.37838 8.37838 v -16.75675 -16.75674 h 8.37838 8.37838 v 8.37836 8.37838 h 8.37838 8.37837 v 16.75675 16.75678 h 16.75675 16.75677 v 8.37837 8.37838 h 8.37837 8.37838 v 8.37837 8.37838 h 8.37838 8.37838 v -8.37838 -8.37837 h 8.37838 8.37838 v 8.37837 8.37838 h -8.37838 -8.37838 v 8.37839 8.37837 H 251.35135 234.5946 v 8.37838 8.37839 h 16.75675 16.75676 v 8.37836 8.37837 h 16.75676 16.75676 v 8.37839 8.37839 h -8.3784 -8.37836 v 8.37836 8.37839 h 33.5135 33.51352 v -8.37839 -8.37836 h 16.75676 16.75676 v 8.37836 8.37839 h -8.37838 -8.37838 v 8.37838 8.37836 h 8.37838 8.37838 v 8.37839 8.37839 h -8.37838 -8.37838 v 8.37837 8.37838 h 16.75676 16.75675 v -8.37838 -8.37837 h 8.37838 8.37838 v -8.37839 -8.37839 h 8.37837 8.37838 v -8.37836 -8.37838 h 8.37838 8.37838 v -8.37839 -8.37836 h -16.75676 -16.75675 v -8.37839 -8.37839 h 8.37837 8.37838 v -16.75673 -16.75677 h -8.37838 -8.37837 v -8.37837 -8.37839 h 16.75675 16.75676 v -8.37838 -8.37837 h -8.37838 -8.37838 v -8.37838 -8.37837 h 25.13514 25.13514 v 8.37837 8.37838 h -8.37839 -8.37838 v 16.75675 16.75676 h 8.37838 8.37839 v 8.37838 8.37839 h 16.75675 16.75676 v 8.37836 8.37837 H 502.7027 485.94595 v -8.37837 -8.37836 h -16.75677 -16.75675 v 8.37836 8.37837 h 8.37838 8.37837 v 8.37839 8.37839 h 16.75677 16.75675 v 16.75675 16.75674 h -16.75675 -16.75677 v 8.37839 8.37839 h 8.37838 8.37838 v 8.37837 8.37838 h 8.37838 8.37838 v 8.37837 8.37838 h -16.75675 -16.75677 v -16.75675 -16.75675 h -16.75675 -16.75676 v 8.37837 8.37838 h 8.37838 8.37838 v 8.37837 8.37838 h -8.37838 -8.37838 v -8.37838 -8.37837 h -8.37838 -8.37837 v 8.37837 8.37838 h -8.37838 -8.37838 v 8.37837 8.37839 h 8.37838 8.37838 v 8.37838 8.37838 h -8.37838 -8.37838 z m -33.51351,-67.02703 v -8.37839 h -25.13514 -25.13514 v 8.37839 8.37839 h 25.13514 25.13514 z m 100.54053,-16.75675 v -8.37838 h -8.37837 -8.37838 v 8.37838 8.37836 h 8.37838 8.37837 z M 217.83783,326.75676 v -8.37838 h 8.37838 8.37839 v -8.37837 -8.37839 h -8.37839 -8.37838 v -8.37838 -8.37837 h -8.37837 -8.37838 v -8.37838 -8.37837 h -8.37837 -8.37838 v 8.37837 8.37838 h 8.37838 8.37837 v 8.37837 8.37838 h 8.37838 8.37837 v 8.37839 8.37837 h -8.37837 -8.37838 v 8.37838 8.37839 h 8.37838 8.37837 z M 201.08108,427.2973 v -8.37837 h 8.37838 8.37837 v 8.37837 8.37838 h -8.37837 -8.37838 z m 335.13514,-67.02703 v -8.37839 h 8.37838 8.37838 v 8.37839 8.37839 h -8.37838 -8.37838 z M 100.54054,343.51351 v -8.37836 h 16.75676 16.75675 v 8.37836 8.37837 H 117.2973 100.54054 Z m 234.59459,0 v -8.37836 h 8.37838 8.37838 v -16.75677 -16.75676 h 8.37838 8.37838 v -16.75675 -16.75675 h 16.75676 16.75675 v -8.37839 -8.37839 h -8.37838 -8.37837 v -8.37836 -8.37839 h 8.37837 8.37838 v 8.37839 8.37836 h 8.37838 8.37838 v 8.37839 8.37839 h -8.37838 -8.37838 v 16.75675 16.75675 h -16.75675 -16.75676 v 8.37839 8.37837 h 8.37838 8.37838 v 16.75677 16.75673 h -8.37838 -8.37838 v -8.37837 -8.37836 h -8.37838 -8.37838 v 8.37836 8.37837 h -8.37838 -8.37838 z M 502.7027,268.10812 v -16.75678 h 8.37838 8.37838 v 8.37839 8.37839 h 8.37838 8.37836 v 8.37837 8.37838 H 519.45946 502.7027 Z M 368.64865,209.45946 v -8.37839 h 8.37838 8.37838 v -8.37837 -8.37838 h 16.75675 16.75676 v 16.75675 16.75678 h -8.37838 -8.37838 v -8.37839 -8.37839 h -8.37838 -8.37837 v 8.37839 8.37839 h -8.37838 -8.37838 z m -16.75676,-33.51351 v -8.37838 h 8.37838 8.37838 v -8.37837 -8.37839 h 8.37838 8.37838 v 8.37839 8.37837 h -8.37838 -8.37838 v 8.37838 8.37837 h -8.37838 -8.37838 z m 50.27027,-16.75675 v -8.37839 h 8.37838 8.37838 v 8.37839 8.37837 h -8.37838 -8.37838 z m 134.05406,351.89188 v -25.13513 h -25.13514 -25.13513 v 25.13513 25.13514 h 25.13513 25.13514 z m -33.51352,0 v -8.37837 h 8.37838 8.37838 v 8.37837 8.37838 h -8.37838 -8.37838 z m 67.02702,16.75675 v -8.37837 h -8.37836 -8.37838 v 8.37837 8.37839 h 8.37838 8.37836 z M 167.56757,477.56757 v -8.37838 h 8.37838 8.37838 v -8.37839 -8.37837 h -8.37838 -8.37838 v -16.75675 -16.75675 h -8.37838 -8.37838 v -8.37839 -8.37839 h -8.37838 -8.37838 v -8.37836 -8.37838 H 117.2973 100.54054 v 8.37838 8.37836 H 83.783781 67.027022 v 8.37839 8.37839 h 16.756759 16.756759 v 8.37837 8.37838 H 75.405402 50.270277 v 8.37837 8.37838 h 16.756745 16.756759 v 8.37837 8.37839 h 16.756759 16.75676 v -8.37839 -8.37837 h -8.37838 -8.37838 v -8.37838 -8.37837 h 16.75676 16.75675 v 16.75675 16.75676 h 8.37838 8.37838 v 8.37838 8.37838 h 8.37838 8.37838 z M 134.05405,427.2973 v -8.37837 h 8.37838 8.37838 v 8.37837 8.37838 h -8.37838 -8.37838 z m -33.51351,-16.75676 v -8.37839 h 8.37838 8.37838 v 8.37839 8.37839 h -8.37838 -8.37838 z M 50.270277,377.02702 v -8.37836 H 33.513505 16.756759 v 8.37836 8.37839 h 16.756746 16.756772 z m 0,-167.56756 v -8.37839 h -8.378392 -8.37838 v 8.37839 8.37839 h 8.37838 8.378392 z M 485.94595,167.56757 v -16.75676 h -16.75677 -16.75675 v 8.37839 8.37837 h 8.37838 8.37837 v 8.37838 8.37837 h 8.37838 8.37838 z M 301.62163,142.43243 v -8.37838 h 8.37838 8.37836 v 8.37838 8.37838 h 8.37838 8.37838 v -33.5135 -33.51353 h -8.37838 -8.37838 V 67.02702 50.27027 h -8.37836 -8.37838 v 25.13514 25.13513 h -8.3784 -8.37836 v 8.37838 8.37839 h -8.37838 -8.37838 v -8.37839 -8.37838 h -8.37838 -8.37838 v 8.37838 8.37839 h 8.37838 8.37838 v 16.75674 16.75676 h 16.75676 16.75676 z m -16.75676,-16.75675 v -8.37837 h 8.37836 8.3784 v -8.37839 -8.37838 h 8.37838 8.37836 v 8.37838 8.37839 h -8.37836 -8.37838 v 8.37837 8.37837 h -8.3784 -8.37836 z m 83.78378,-25.13514 V 83.78378 h -8.37838 -8.37838 v 16.75676 16.75677 h 8.37838 8.37838 z m 33.51351,-25.13513 v -8.37839 h -8.37838 -8.37837 v 8.37839 8.37837 h 8.37837 8.37838 z M 234.5946,41.8919 v -8.37839 h -8.37839 -8.37838 v -8.37837 -8.37839 h -8.37837 -8.37838 v 8.37839 8.37837 h -8.37837 -8.37838 v 8.37839 8.37837 h 25.13513 25.13514 z m 150.81081,569.72971 v -8.37836 h -8.37838 -8.37838 v -8.37839 -8.37837 h 8.37838 8.37838 v 8.37837 8.37839 h 8.37837 8.37838 v -8.37839 -8.37837 h 8.37838 8.37838 v 8.37837 8.37839 h 16.75675 16.75676 V 611.62161 620 h -33.51351 -33.51351 z m -67.02704,-50.27026 v -8.37838 h -8.37836 -8.37838 v -8.37838 -8.37837 h 8.37838 8.37836 v 8.37837 8.37838 h 8.37838 8.37838 v 8.37838 8.37838 h -8.37838 -8.37838 z M -2.4999999e-7,251.35134 V 234.59459 H 8.3783797 16.756759 v 16.75675 16.75678 H 8.3783797 -2.4999999e-7 Z m 0,-92.16214 v -8.37839 H 8.3783797 16.756759 v 8.37839 8.37837 H 8.3783797 -2.4999999e-7 Z m 33.51350525,0 v -8.37839 h 8.37838 8.378392 v 8.37839 8.37837 h -8.378392 -8.37838 z M -2.4999999e-7,58.64865 V 0 H 58.648643 117.2973 v 58.64865 58.64866 H 58.648643 -2.4999999e-7 Z M 100.54054,58.64865 V 16.75675 H 58.648643 16.756759 v 41.8919 41.89189 h 41.891884 41.891897 z m -67.027035,0 V 33.51351 H 58.648643 83.783781 V 58.64865 83.78378 H 58.648643 33.513505 Z m 469.189195,0 V 0 H 561.35136 620 v 58.64865 58.64866 H 561.35136 502.7027 Z m 100.54054,0 v -41.8919 h -41.89188 -41.8919 v 41.8919 41.89189 h 41.8919 41.89188 z m -67.02702,0 V 33.51351 h 25.13514 25.13512 V 58.64865 83.78378 H 561.35136 536.21622 Z M 402.16216,25.13514 V 16.75675 H 377.02703 351.89189 V 8.37838 0 h 58.64865 58.64864 v 8.37838 8.37837 h -16.75675 -16.75676 v 8.37839 8.37837 h -16.75675 -16.75676 z"
       id="qr" /><path
       d="m 20.528195,637.17664 q 15.201113,0 15.201113,11.94795 0,6.09228 -3.962936,9.58203 -3.903788,3.4306 -12.125402,3.4306 h -6.210571 v 17.2713 H 9.999797 v -42.23188 z m -0.35489,3.01656 h -6.742906 v 18.92745 h 5.855681 q 6.092275,0 9.463728,-2.12933 3.430602,-2.12934 3.430602,-7.68928 0,-4.73187 -2.957415,-6.92035 -2.898267,-2.18849 -9.04969,-2.18849 z m 35.19328,-3.01656 q 7.570982,0 11.356474,2.66167 3.844639,2.60252 3.844639,8.93139 0,4.85016 -2.602525,7.63013 -2.543377,2.72082 -6.388017,3.84464 l 11.593067,19.16405 H 69.088991 L 58.324,661.19085 H 48.268789 v 18.21767 h -3.430602 v -42.23188 z m -0.295742,3.01656 h -6.802054 v 18.04023 h 7.98502 q 5.145902,0 7.925873,-2.36593 2.839118,-2.42508 2.839118,-6.9795 0,-4.85016 -2.957415,-6.74291 -2.957415,-1.95189 -8.990542,-1.95189 z m 61.041067,18.04023 q 0,6.44716 -2.12934,11.35647 -2.12934,4.90931 -6.38802,7.68928 Q 103.39502,680 97.125307,680 q -6.388016,0 -10.646694,-2.72082 -4.199529,-2.77997 -6.328868,-7.68928 -2.070191,-4.96845 -2.070191,-11.41562 0,-6.44716 2.129339,-11.29732 2.188487,-4.85016 6.447165,-7.57099 4.317826,-2.77997 10.646694,-2.77997 6.092268,0 10.291798,2.66168 4.19953,2.60252 6.32887,7.45268 2.18849,4.85016 2.18849,11.59307 z m -34.424309,-0.0592 q 0,5.61909 1.656152,9.87777 1.656152,4.19953 5.086754,6.56546 3.430601,2.30678 8.6948,2.30678 5.323343,0 8.694793,-2.30678 3.43061,-2.30678 5.02761,-6.50631 1.65615,-4.25868 1.65615,-9.87777 0,-8.8131 -3.84464,-13.72241 -3.78549,-4.9093 -11.356468,-4.9093 -5.264199,0 -8.753949,2.36593 -3.489749,2.30678 -5.20505,6.50631 -1.656152,4.14038 -1.656152,9.70032 z m 54.593859,-20.99759 q 15.20111,0 15.20111,11.94795 0,6.09228 -3.96294,9.58203 -3.90378,3.4306 -12.1254,3.4306 h -6.21057 v 17.2713 h -3.4306 v -42.23188 z m -0.35489,3.01656 h -6.74291 v 18.92745 h 5.85568 q 6.09228,0 9.46373,-2.12933 3.4306,-2.12934 3.4306,-7.68928 0,-4.73187 -2.95741,-6.92035 -2.89827,-2.18849 -9.04969,-2.18849 z m 35.19328,-3.01656 q 7.57098,0 11.35647,2.66167 3.84464,2.60252 3.84464,8.93139 0,4.85016 -2.60252,7.63013 -2.54338,2.72082 -6.38802,3.84464 l 11.59307,19.16405 h -4.08123 l -10.76499,-18.21767 h -10.05521 v 18.21767 h -3.43061 v -42.23188 z m -0.29574,3.01656 h -6.80205 v 18.04023 h 7.98502 q 5.1459,0 7.92587,-2.36593 2.83912,-2.42508 2.83912,-6.9795 0,-4.85016 -2.95742,-6.74291 -2.95741,-1.95189 -8.99054,-1.95189 z m 34.77922,39.21532 h -12.42114 v -2.12934 l 4.49527,-0.65063 v -36.6128 l -4.49527,-0.70978 v -2.12933 h 12.42114 v 2.12933 l -4.49527,0.70978 v 36.6128 l 4.49527,0.65063 z m 32.05843,0 h -23.18614 v -42.23188 h 23.18614 v 3.07571 h -19.75553 v 15.4377 h 18.63171 v 3.07571 h -18.63171 v 17.56705 h 19.75553 z m 20.99762,0 h -3.4306 v -39.15617 h -13.60411 v -3.07571 h 30.63882 v 3.07571 h -13.60411 z m 42.23191,0 -5.61908,-14.55048 h -17.5079 l -5.67824,14.55048 h -3.5489 l 16.62068,-42.40933 h 3.13486 l 16.20663,42.40933 z m -12.30284,-32.88645 q -0.35489,-0.82808 -0.94638,-2.60253 -0.59148,-1.77445 -1.00552,-3.13486 -0.47318,1.59701 -1.00552,3.13486 -0.53233,1.53786 -0.88722,2.66167 l -5.85568,15.14197 h 15.31941 z m 32.35411,-9.34543 q 7.57098,0 11.35647,2.66167 3.84464,2.60252 3.84464,8.93139 0,4.85016 -2.60252,7.63013 -2.54338,2.72082 -6.38802,3.84464 l 11.59307,19.16405 h -4.08124 l -10.76499,-18.21767 h -10.05521 v 18.21767 h -3.4306 v -42.23188 z m -0.29574,3.01656 h -6.80206 v 18.04023 h 7.98502 q 5.14591,0 7.92588,-2.36593 2.83911,-2.42508 2.83911,-6.9795 0,-4.85016 -2.95741,-6.74291 -2.95742,-1.95189 -8.99054,-1.95189 z m 35.19324,19.57809 12.06625,-22.59465 h 3.78549 l -14.07729,25.90695 v 16.32493 h -3.4306 v -16.08834 l -14.1956,-26.14354 h 3.7855 z m 37.14512,19.63723 v -42.23188 h 3.4306 v 39.09702 h 19.81468 v 3.13486 z m 39.98421,0 h -12.42115 v -2.12934 l 4.49527,-0.65063 v -36.6128 l -4.49527,-0.70978 v -2.12933 h 12.42115 v 2.12933 l -4.49527,0.70978 v 36.6128 l 4.49527,0.65063 z m 26.85338,-39.74766 q -5.20505,0 -8.9314,2.36594 -3.72634,2.30678 -5.73738,6.50631 -1.9519,4.14038 -1.9519,9.64117 0,5.67824 1.77445,9.93692 1.77445,4.19953 5.32335,6.50631 3.60805,2.30678 8.93139,2.30678 3.07571,0 5.61909,-0.47318 2.60253,-0.47319 4.90931,-1.24212 v 3.01657 q -2.18849,0.82807 -4.79101,1.30126 Q 462.36614,680 458.87639,680 q -6.38801,0 -10.70584,-2.72082 -4.25868,-2.72082 -6.44716,-7.63013 -2.12934,-4.90931 -2.12934,-11.47477 0,-6.26972 2.36593,-11.11988 2.42508,-4.90931 6.92035,-7.68928 4.55442,-2.77997 11.00158,-2.77997 6.15143,0 11.06074,2.30679 l -1.36041,3.01656 q -4.55442,-2.24764 -9.75947,-2.24764 z m 42.05438,39.74766 h -23.18613 v -42.23188 h 23.18613 v 3.07571 h -19.75553 v 15.4377 h 18.63171 v 3.07571 h -18.63171 v 17.56705 h 19.75553 z m 40.8123,0 h -3.66719 l -24.4874,-36.90854 h -0.17744 q 0.11829,2.30679 0.17744,4.90931 0.1183,2.54338 0.1183,5.32335 v 26.67588 H 511.4 v -42.23188 h 3.6672 l 24.42824,36.79024 h 0.17745 q -0.1183,-1.8336 -0.17745,-4.67272 -0.0591,-2.83912 -0.0591,-5.32334 v -26.79418 h 3.25315 z m 35.25242,-11.00158 q 0,3.78549 -1.89275,6.38801 -1.89274,2.60253 -5.20505,3.90379 Q 567.53177,680 563.33224,680 q -3.84464,0 -6.68376,-0.53233 -2.83912,-0.53233 -4.85016,-1.36041 v -3.37145 q 2.18849,0.88722 5.20505,1.53785 3.01656,0.65063 6.50631,0.65063 4.85016,0 7.86673,-2.07019 3.07571,-2.07019 3.07571,-6.21057 0,-2.48423 -1.18297,-4.08123 -1.12381,-1.65615 -3.54889,-2.83912 -2.36594,-1.24211 -6.09228,-2.48423 -3.5489,-1.18296 -6.09227,-2.66167 -2.54338,-1.47871 -3.90379,-3.6672 -1.36041,-2.24763 -1.36041,-5.61909 0,-3.4306 1.7153,-5.79653 1.77445,-2.42508 4.79101,-3.66719 3.07571,-1.24212 6.9795,-1.24212 3.07571,0 5.85568,0.59149 2.77997,0.59148 5.2642,1.65615 l -1.12382,2.95741 q -5.08675,-2.12934 -10.11436,-2.12934 -4.37697,0 -7.15694,1.9519 -2.72082,1.89274 -2.72082,5.61909 0,2.72082 1.18296,4.37697 1.18297,1.597 3.4306,2.72082 2.24764,1.12382 5.5008,2.24764 3.72634,1.30126 6.38801,2.72082 2.72082,1.41956 4.19953,3.60805 1.47871,2.12933 1.47871,5.50079 z m 32.05833,11.00158 h -23.18614 v -42.23188 h 23.18614 v 3.07571 h -19.75553 v 15.4377 h 18.63171 v 3.07571 h -18.63171 v 17.56705 h 19.75553 z"
       id="text"
       style=""
       aria-label="PROPRIETARY LICENSE" /></g></svg>
